/* XPM */
static char *_da9f474ff82419fbdb82b029c297d71[] = {
/* columns rows colors chars-per-pixel */
"64 64 5 1 ",
"  c black",
". c #ED1C24",
"X c #22B14C",
"o c blue",
"O c gray100",
/* pixels */
"................................XXXXXXXXXXXXXXXXXXXXXXXXXXXXXXXX",
"................................XXXXXXXXXXXXXXXXXXXXXXXXXXXXXXXX",
"................................XXXXXXXXXXXXXXXXXXXXXXXXXXXXXXXX",
"................................XXXXXXXXXXXXXXXXXXXXXXXXXXXXXXXX",
"................................XXXXXXXXXXXXXXXXXXXXXXXXXXXXXXXX",
"................................XXXXXXXXXXXXXXXXXXXXXXXXXXXXXXXX",
"................................XXXXXXXXXXXXXXXXXXXXXXXXXXXXXXXX",
"................................XXXXXXXXXXXXXXXXXXXXXXXXXXXXXXXX",
"................................XXXXXXXXXXXXXXXXXXXXXXXXXXXXXXXX",
"................................XXXXXXXXXXXXXXXXXXXXXXXXXXXXXXXX",
"................................XXXXXXXXXXXXXXXXXXXXXXXXXXXXXXXX",
"................................XXXXXXXXXXXXXXXXXXXXXXXXXXXXXXXX",
"................................XXXXXXXXXXXXXXXXXXXXXXXXXXXXXXXX",
"................................XXXXXXXXXXXXXXXXXXXXXXXXXXXXXXXX",
"................................XXXXXXXXXXXXXXXXXXXXXXXXXXXXXXXX",
"................................XXXXXXXXXXXXXXXXXXXXXXXXXXXXXXXX",
"................                                XXXXXXXXXXXXXXXX",
"................                                XXXXXXXXXXXXXXXX",
"................                                XXXXXXXXXXXXXXXX",
"................                                XXXXXXXXXXXXXXXX",
"................                                XXXXXXXXXXXXXXXX",
"................                                XXXXXXXXXXXXXXXX",
"................                                XXXXXXXXXXXXXXXX",
"................                                XXXXXXXXXXXXXXXX",
"................                                XXXXXXXXXXXXXXXX",
"................                                XXXXXXXXXXXXXXXX",
"................                                XXXXXXXXXXXXXXXX",
"................                                XXXXXXXXXXXXXXXX",
"................                                XXXXXXXXXXXXXXXX",
"................                                XXXXXXXXXXXXXXXX",
"................                                XXXXXXXXXXXXXXXX",
"................                                XXXXXXXXXXXXXXXX",
"oooooooooooooooo                                OOOOOOOOOOOOOOOO",
"oooooooooooooooo                                OOOOOOOOOOOOOOOO",
"oooooooooooooooo                                OOOOOOOOOOOOOOOO",
"oooooooooooooooo                                OOOOOOOOOOOOOOOO",
"oooooooooooooooo                                OOOOOOOOOOOOOOOO",
"oooooooooooooooo                                OOOOOOOOOOOOOOOO",
"oooooooooooooooo                                OOOOOOOOOOOOOOOO",
"oooooooooooooooo                                OOOOOOOOOOOOOOOO",
"oooooooooooooooo                                OOOOOOOOOOOOOOOO",
"oooooooooooooooo                                OOOOOOOOOOOOOOOO",
"oooooooooooooooo                                OOOOOOOOOOOOOOOO",
"oooooooooooooooo                                OOOOOOOOOOOOOOOO",
"oooooooooooooooo                                OOOOOOOOOOOOOOOO",
"oooooooooooooooo                                OOOOOOOOOOOOOOOO",
"oooooooooooooooo                                OOOOOOOOOOOOOOOO",
"oooooooooooooooo                                OOOOOOOOOOOOOOOO",
"ooooooooooooooooooooooooooooooooOOOOOOOOOOOOOOOOOOOOOOOOOOOOOOOO",
"ooooooooooooooooooooooooooooooooOOOOOOOOOOOOOOOOOOOOOOOOOOOOOOOO",
"ooooooooooooooooooooooooooooooooOOOOOOOOOOOOOOOOOOOOOOOOOOOOOOOO",
"ooooooooooooooooooooooooooooooooOOOOOOOOOOOOOOOOOOOOOOOOOOOOOOOO",
"ooooooooooooooooooooooooooooooooOOOOOOOOOOOOOOOOOOOOOOOOOOOOOOOO",
"ooooooooooooooooooooooooooooooooOOOOOOOOOOOOOOOOOOOOOOOOOOOOOOOO",
"ooooooooooooooooooooooooooooooooOOOOOOOOOOOOOOOOOOOOOOOOOOOOOOOO",
"ooooooooooooooooooooooooooooooooOOOOOOOOOOOOOOOOOOOOOOOOOOOOOOOO",
"ooooooooooooooooooooooooooooooooOOOOOOOOOOOOOOOOOOOOOOOOOOOOOOOO",
"ooooooooooooooooooooooooooooooooOOOOOOOOOOOOOOOOOOOOOOOOOOOOOOOO",
"ooooooooooooooooooooooooooooooooOOOOOOOOOOOOOOOOOOOOOOOOOOOOOOOO",
"ooooooooooooooooooooooooooooooooOOOOOOOOOOOOOOOOOOOOOOOOOOOOOOOO",
"ooooooooooooooooooooooooooooooooOOOOOOOOOOOOOOOOOOOOOOOOOOOOOOOO",
"ooooooooooooooooooooooooooooooooOOOOOOOOOOOOOOOOOOOOOOOOOOOOOOOO",
"ooooooooooooooooooooooooooooooooOOOOOOOOOOOOOOOOOOOOOOOOOOOOOOOO",
"ooooooooooooooooooooooooooooooooOOOOOOOOOOOOOOOOOOOOOOOOOOOOOOOO"
};
